<?xml version="1.0" encoding="iso-8859-1"?>
<!-- Uploaded to: SVG Repo, www.svgrepo.com, Generator: SVG Repo Mixer Tools -->
<!DOCTYPE svg PUBLIC "-//W3C//DTD SVG 1.1//EN" "http://www.w3.org/Graphics/SVG/1.1/DTD/svg11.dtd">
<svg fill="white" version="1.1" id="Capa_1" xmlns="http://www.w3.org/2000/svg" xmlns:xlink="http://www.w3.org/1999/xlink" 
	 width="800px" height="800px" viewBox="0 0 606 606" xml:space="preserve">
<g>
	<g>
		<path d="M441.062,249.286c1.557,12.109,7.287,23.435,16.248,31.804c9.842,9.193,22.676,14.255,36.139,14.255
			c13.773,0,26.768-5.294,36.676-14.927l59.113-56.066l0.41-0.39l0.4-0.4c9.963-9.963,15.449-23.208,15.449-37.297
			c0-14.089-5.486-27.336-15.449-37.298l-0.4-0.399l-0.41-0.389l-59.113-56.066c-9.908-9.632-22.902-14.927-36.676-14.927
			c-13.461,0-26.297,5.062-36.139,14.254c-9.143,8.539-14.924,20.157-16.338,32.543h-64.535c-17.574,0-34.016,7.819-45.104,21.454
			l-46.297,56.92l-46.246-56.858c-11.089-13.634-27.529-21.454-45.104-21.454H58.64c-32.059,0-58.14,26.082-58.14,58.14v9.024
			c0,32.058,26.082,58.14,58.14,58.14h100.898L203.177,303l-43.639,53.652H58.64c-32.059,0-58.14,26.082-58.14,58.14v9.024
			c0,32.059,26.082,58.141,58.14,58.141h135.046c17.574,0,34.014-7.819,45.104-21.454l46.246-56.858l46.297,56.92
			c11.09,13.635,27.529,21.454,45.104,21.454h64.535c1.416,12.387,7.195,24.004,16.338,32.543
			c9.844,9.191,22.678,14.254,36.139,14.254c13.775,0,26.768-5.295,36.678-14.927l59.111-56.066l0.412-0.39l0.4-0.4
			c9.963-9.963,15.449-23.208,15.449-37.297c0-14.09-5.488-27.336-15.451-37.298l-0.4-0.4l-0.41-0.39l-59.111-56.065
			c-9.91-9.633-22.902-14.929-36.676-14.929c-13.467,0.002-26.299,5.064-36.141,14.255c-8.961,8.369-14.691,19.696-16.248,31.806
			h-30.477L366.898,303l43.688-53.714H441.062L441.062,249.286z M397.486,399.553h85.986v-36.134c0-5.971,4.885-9.925,9.977-9.926
			c2.436,0,4.916,0.903,6.934,2.921l59.375,56.315c3.869,3.868,3.869,10.141,0,14.009l-59.375,56.315
			c-2.018,2.018-4.5,2.921-6.934,2.921c-5.092,0-9.977-3.954-9.977-9.926v-36.871H376.438c-4.604,0-8.963-2.074-11.869-5.646
			l-51.922-63.835l-27.61-33.946l-26.639-32.752l-27.61-33.947l-46.28-56.9c-2.905-3.572-7.265-5.646-11.87-5.646H58.64
			c-8.45,0-15.3-6.85-15.3-15.3v-9.024c0-8.45,6.85-15.3,15.3-15.3h135.046c4.604,0,8.964,2.073,11.869,5.646l51.87,63.773
			l27.61,33.946l26.64,32.752l27.609,33.946l46.33,56.962C388.521,397.479,392.883,399.553,397.486,399.553z M205.556,433.47
			c-2.905,3.572-7.265,5.646-11.869,5.646H58.64c-8.45,0-15.3-6.85-15.3-15.3v-9.024c0-8.45,6.85-15.3,15.3-15.3h113.997
			c4.605,0,8.964-2.074,11.87-5.646l46.28-56.9l26.639,32.752L205.556,433.47z M385.617,212.091l-46.33,56.962l-26.639-32.752
			l51.92-63.834c2.906-3.572,7.266-5.646,11.869-5.646h107.035v-36.872c0-5.971,4.885-9.926,9.977-9.926
			c2.434,0,4.916,0.903,6.934,2.921l59.375,56.315c3.869,3.869,3.869,10.141,0,14.009l-59.375,56.315
			c-2.018,2.019-4.498,2.921-6.934,2.921c-5.092,0-9.977-3.955-9.977-9.926v-36.134h-85.986
			C392.883,206.445,388.521,208.519,385.617,212.091z"/>
		<path d="M493.449,529.315c-13.587,0-26.543-5.11-36.479-14.389c-9.089-8.488-14.916-19.982-16.441-32.408h-64.091
			c-17.726,0-34.307-7.887-45.491-21.639l-45.91-56.443l-45.858,56.382c-11.185,13.752-27.766,21.639-45.492,21.639H58.64
			C26.306,482.457,0,456.151,0,423.816v-9.024c0-32.334,26.306-58.64,58.64-58.64H159.3L202.532,303L159.3,249.848H58.64
			c-32.334,0-58.64-26.306-58.64-58.64v-9.024c0-32.334,26.306-58.64,58.64-58.64h135.046c17.727,0,34.308,7.887,45.492,21.639
			l45.858,56.381l45.91-56.443c11.183-13.751,27.764-21.639,45.491-21.639h64.091c1.523-12.424,7.351-23.918,16.44-32.408
			c9.936-9.279,22.892-14.389,36.48-14.389c13.88,0,27.028,5.352,37.024,15.069l59.519,56.451l0.41,0.408
			c10.057,10.057,15.596,23.429,15.596,37.652c0,14.223-5.539,27.594-15.596,37.651l-0.819,0.799l-59.114,56.066
			c-9.99,9.713-23.139,15.064-37.02,15.064c-13.59,0-26.546-5.11-36.48-14.39c-8.889-8.302-14.683-19.535-16.344-31.669h-29.801
			L367.543,303l43.281,53.214h29.801c1.661-12.136,7.455-23.369,16.344-31.671c9.936-9.277,22.892-14.388,36.482-14.39
			c13.878,0,27.026,5.352,37.024,15.07l59.518,56.451l0.409,0.409C600.461,392.142,606,405.513,606,419.735
			s-5.539,27.594-15.596,37.65l-0.822,0.8l-59.111,56.065C520.478,523.964,507.328,529.315,493.449,529.315z M285.037,402.853
			l46.685,57.396c10.994,13.517,27.293,21.27,44.716,21.27h64.981l0.051,0.443c1.413,12.359,7.159,23.808,16.182,32.234
			c9.752,9.104,22.465,14.119,35.798,14.119c13.617,0,26.52-5.251,36.329-14.785l59.528-56.461l0.391-0.391
			C599.565,446.811,605,433.69,605,419.735s-5.436-27.076-15.305-36.944l-0.802-0.781l-59.11-56.065
			c-9.815-9.539-22.717-14.791-36.332-14.791c-13.337,0.002-26.051,5.017-35.8,14.12c-8.825,8.243-14.541,19.432-16.093,31.504
			l-0.057,0.437h-31.154l-0.149-0.185L366.254,303l44.094-54.214h31.154l0.057,0.436c1.552,12.072,7.268,23.259,16.093,31.503
			c9.749,9.106,22.462,14.121,35.798,14.121c13.618,0,26.52-5.251,36.327-14.786l59.527-56.46l0.392-0.392
			c9.868-9.868,15.303-22.988,15.303-36.943c0-13.957-5.435-27.077-15.303-36.945l-0.801-0.779l-59.113-56.066
			c-9.812-9.539-22.714-14.79-36.332-14.79c-13.335,0-26.048,5.014-35.798,14.119c-9.024,8.429-14.771,19.877-16.182,32.234
			l-0.051,0.443h-64.981c-17.425,0-33.724,7.752-44.716,21.27l-46.685,57.397l-46.634-57.335
			c-10.994-13.517-27.292-21.27-44.716-21.27H58.64c-31.783,0-57.64,25.857-57.64,57.64v9.024c0,31.783,25.857,57.64,57.64,57.64
			h101.136L203.821,303l-44.045,54.152H58.64C26.857,357.152,1,383.01,1,414.792v9.024c0,31.783,25.857,57.641,57.64,57.641h135.046
			c17.423,0,33.722-7.753,44.716-21.27L285.037,402.853z M493.449,486.475c-5.149,0-10.477-3.899-10.477-10.426v-36.371H376.438
			c-4.774,0-9.242-2.125-12.257-5.83l-180.062-221.38c-2.822-3.471-7.007-5.461-11.482-5.461H58.64c-8.712,0-15.8-7.088-15.8-15.8
			v-9.024c0-8.712,7.088-15.8,15.8-15.8h135.046c4.776,0,9.244,2.125,12.257,5.83l180.059,221.379
			c2.823,3.471,7.009,5.461,11.483,5.461h85.486v-35.634c0-6.524,5.327-10.425,10.477-10.426c2.721,0,5.31,1.09,7.287,3.067
			l59.365,56.306c1.976,1.975,3.059,4.588,3.059,7.368c0,2.779-1.083,5.393-3.049,7.357l-59.385,56.324
			C498.759,485.385,496.17,486.475,493.449,486.475z M58.64,167.382c-8.161,0-14.8,6.639-14.8,14.8v9.024
			c0,8.161,6.639,14.8,14.8,14.8h113.997c4.777,0,9.245,2.125,12.258,5.83l180.061,221.38c2.824,3.471,7.009,5.461,11.481,5.461
			h107.535v37.371c0,5.9,4.818,9.426,9.477,9.426c2.489,0,4.765-0.959,6.58-2.774l59.385-56.324c1.768-1.768,2.746-4.13,2.746-6.642
			c0-2.513-0.979-4.875-2.756-6.651l-59.365-56.307c-1.825-1.824-4.101-2.783-6.59-2.783c-4.658,0.001-9.477,3.526-9.477,9.426
			v36.634h-86.486c-4.776,0-9.245-2.125-12.259-5.83l-180.06-221.379c-2.823-3.471-7.007-5.461-11.481-5.461H58.64z
			 M193.687,439.615H58.64c-8.712,0-15.8-7.088-15.8-15.8v-9.024c0-8.712,7.088-15.8,15.8-15.8h113.997
			c4.473,0,8.658-1.99,11.482-5.461l46.667-57.377l27.284,33.544l-52.127,64.088C202.93,437.49,198.463,439.615,193.687,439.615z
			 M58.64,399.991c-8.161,0-14.8,6.64-14.8,14.8v9.024c0,8.161,6.639,14.8,14.8,14.8h135.046c4.474,0,8.659-1.99,11.481-5.461
			l51.614-63.457l-25.995-31.96l-45.892,56.424c-3.015,3.705-7.482,5.83-12.258,5.83H58.64z M339.287,269.846l-27.283-33.544
			l52.177-64.15c3.015-3.706,7.481-5.831,12.257-5.831h106.535v-36.372c0-6.526,5.327-10.426,10.477-10.426
			c2.722,0,5.31,1.089,7.287,3.068l59.365,56.306c1.976,1.975,3.059,4.588,3.059,7.368c0,2.779-1.083,5.393-3.049,7.358
			l-59.385,56.324c-1.967,1.969-4.556,3.058-7.277,3.058c-5.149,0-10.477-3.9-10.477-10.426v-35.634h-85.486
			c-4.475,0-8.659,1.991-11.481,5.462L339.287,269.846z M313.293,236.301l25.994,31.959l45.942-56.485
			c3.012-3.705,7.479-5.831,12.257-5.831h86.486v36.634c0,5.9,4.818,9.426,9.477,9.426c2.49,0,4.766-0.959,6.58-2.774l59.385-56.324
			c1.768-1.768,2.746-4.129,2.746-6.642c0-2.513-0.979-4.875-2.756-6.651l-59.365-56.306c-1.825-1.825-4.101-2.784-6.59-2.784
			c-4.658,0-9.477,3.526-9.477,9.426v37.372H376.438c-4.473,0-8.657,1.991-11.481,5.461L313.293,236.301z"/>
	</g>
</g>
</svg>